<?xml version="1.0" encoding="utf-8"?>
<!-- Generator: Adobe Illustrator 17.1.0, SVG Export Plug-In . SVG Version: 6.00 Build 0)  -->
<!DOCTYPE svg PUBLIC "-//W3C//DTD SVG 1.1//EN" "http://www.w3.org/Graphics/SVG/1.1/DTD/svg11.dtd">
<svg version="1.1" id="Layer_1" xmlns="http://www.w3.org/2000/svg" xmlns:xlink="http://www.w3.org/1999/xlink" x="0px" y="0px"
	 viewBox="0 0 425.197 251.64" enable-background="new 0 0 425.197 251.64" xml:space="preserve">
<ellipse fill="#FFFFFF" cx="219.717" cy="128.129" rx="187.507" ry="97.707"/>
<g>
	<path fill="#ED1C24" d="M300.526,240.488c-28.596,7.72-58.332,11.152-88.071,11.152c-27.736,0-55.758-3.148-82.637-10.009
		C76.061,228.191,0,190.445,0,125.82S76.061,23.448,129.818,10.008C156.697,3.146,184.72,0,212.456,0
		c29.452,0,59.19,3.432,87.783,11.153c52.616,14.011,124.959,51.758,124.959,114.667
		C425.197,188.73,353.139,226.475,300.526,240.488z M148.119,70.059c0.572-0.286,1.716-0.857,2.574-1.43
		c1.43-0.858,2.573-2.288,2.573-2.86c0-0.857-0.857-1.429-1.43-1.429c-1.716,0-5.146,2.001-6.862,2.859
		c-6.005-5.72-14.869-8.293-23.162-8.293c-16.299,0-34.885,5.434-44.035,20.304c-2.002,3.431-3.717,7.435-3.717,11.438
		c0,7.72,6.291,12.868,13.725,12.868c7.435,0,14.869-4.576,15.727-13.44h-1.43c-3.432,0-6.577-1.716-6.577-5.147
		c0-12.582,17.442-18.588,28.309-18.588c5.718,0,11.151,0.858,16.013,3.718c-9.15,6.291-20.017,16.299-26.593,25.163
		c-6.005,8.008-11.152,16.3-17.728,24.021c-6.291-4.004-11.438-5.719-19.159-5.719c-8.006,0-21.732,4.576-21.732,15.156
		c0,9.152,8.292,13.439,16.299,13.439c4.289,0,8.578-2.286,12.295-4.287c4.575,3.145,9.722,4.287,15.155,4.287
		c24.591,0,54.901-29.738,54.901-54.331C153.266,81.784,151.836,75.206,148.119,70.059z M70.628,135.544
		c-2.002,0-7.149-0.572-7.149-3.433c0-2.573,1.43-3.716,4.289-3.716c4.576,0,7.149,2.001,10.294,4.86
		C75.775,134.399,72.915,135.544,70.628,135.544z M380.591,148.981c-4.005-1.142-8.008-1.142-12.01-1.142
		c-7.15,0-14.298,2.001-21.16,3.145c-0.287-1.716-0.287-3.432-0.287-5.148c0-5.146,2.003-10.865,4.004-15.44
		c1.145-2.287,2.001-4.29,2.859-6.005c0.858-1.716,1.431-3.431,1.143-5.434c-4.574,3.146-8.578,5.434-12.582,7.721
		c0.858-2.859,0.858-6.577,0.858-9.437c0-4.576-0.858-9.15-2.286-13.44c2.001-2.001,3.717-6.577,3.717-9.151
		c0-0.857-0.572-2.286-1.716-2.286c-4.003,0-6.578,7.148-6.578,9.721c0,0.288,0,0.858,0,1.145l0.287,0.572
		c-4.862,5.719-27.736,25.736-33.457,25.736c-1.142,0-2.001-0.572-2.001-1.429c0-0.858,3.718-6.863,8.008-13.154
		c4.289-6.006,8.578-12.011,9.723-13.726h-10.009c-1.716,2.573-4.004,6.005-6.29,9.15c-2.288,3.145-4.29,6.291-6.293,8.293
		c-3.431,3.431-15.154,13.154-19.729,13.154c-0.571,0-1.144-0.858-1.144-1.716c0-1.144,0.572-2.574,1.717-4.29
		c3.43-4.86,10.292-10.294,10.292-16.585c0-4.004-2.857-6.005-6.575-6.005c-3.146,0-5.719,1.429-8.579,2.001
		c-0.857,0.287-1.716,0.287-2.573,0.287c-0.572,0-1.144-0.572-1.144-1.431v-1.143h-8.864c-5.147,7.721-25.162,28.882-33.741,28.882
		c-0.572,0-1.145-0.572-1.145-1.716c0-1.144,0.572-2.574,1.716-4.29c3.431-4.86,10.294-10.294,10.294-16.585
		c0-4.004-2.859-6.005-6.576-6.005c-3.146,0-6.005,1.429-8.864,2.001c-0.858,0.287-1.716,0.287-2.572,0.287
		c-0.859,0-1.432-0.859-1.145-1.144l0.571-1.43h-9.15c-4.002,6.005-9.435,10.866-14.296,16.013
		c-6.863,7.149-17.729,15.157-27.736,15.157c-2.86,0-9.15-0.572-9.15-4.576c0-1.715,2.001-5.433,3.145-7.435
		c2.288,0.286,4.289,0.572,6.577,0.572c5.719,0,22.018-2.573,22.018-11.724c0-7.149-4.86-7.721-10.293-7.721
		c-11.152,0-22.59,7.435-29.453,15.442c-1.144,1.143-2.573,3.146-4.289,4.86c-1.715,1.716-3.718,3.146-5.719,4.004
		c0.857,1.43,1.716,2.001,2.859,2.288c-0.286,1.144-0.571,2.573-0.571,3.718c0,6.576,7.434,8.864,12.581,8.864
		c11.724,0,22.304-6.006,31.454-12.583l-8.864,12.583h12.868c4.861-6.863,10.008-13.726,14.87-20.304
		c2.286-2.859,4.289-6.291,6.862-8.579c2.286-2.002,6.29-4.86,9.436-4.86c1.43,0,2.574,1.143,2.574,2.574
		c0,0.857-0.859,2.573-2.289,4.574c-1.43,2.002-3.431,4.576-5.432,7.149c-4.003,4.862-8.006,10.581-8.006,15.156
		c0,2.574,1.145,4.29,4.003,4.29c6.004,0,18.299-8.293,24.876-12.869l-9.15,12.869h13.153c4.861-6.863,10.008-13.726,14.87-20.304
		c2.288-2.859,4.002-6.291,6.577-8.579c2.286-2.002,6.575-4.86,9.721-4.86c1.43,0,2.573,1.143,2.573,2.574
		c0,0.857-0.857,2.573-2.286,4.574c-1.432,2.002-3.433,4.576-5.434,7.149c-4.004,4.862-8.007,10.581-8.007,15.156
		c0,2.86,1.716,4.003,4.29,4.003c6.005,0,16.583-6.861,22.589-10.865c-0.857,2.001-2.002,4.004-2.002,6.006
		c0,2.573,1.717,4.29,4.29,4.29c6.004,0,16.012-6.578,25.447-14.013c-1.142,1.144-1.714,2.574-1.714,4.575
		c0,5.721,4.859,7.435,9.436,7.435c6.29,0,13.153-1.429,17.442-6.576c2.573-1.144,5.146-2.86,7.72-4.29
		c-3.146,5.719-5.718,15.728-5.718,20.588c0,0.857,0.285,1.716,0.285,2.573c-34.027,5.719-68.056,11.438-102.082,15.728
		c-21.445,2.573-43.177,5.146-64.908,5.146c-9.15,0-52.328-1.143-52.328-13.154c0-1.143,0.571-2.286,1.429-3.717
		c-1.144-2.859-10.008-3.718-12.295-3.718c-8.006,0-18.015,2.859-18.015,13.155c0,16.585,50.327,19.158,59.476,19.158
		c7.721,0,15.441-0.857,22.876-1.717c18.301-1.714,36.601-4.573,54.9-7.72c37.172-6.576,74.631-13.154,111.805-19.729
		c3.146,9.149,15.44,12.295,23.733,12.295c5.147,0,22.018-3.145,22.018-10.294C388.025,152.414,384.593,150.126,380.591,148.981z
		 M109.517,124.391c-2.573,0-4.861-0.572-7.148-1.43c15.155-15.441,24.877-35.458,41.461-49.47
		c2.288,2.574,3.432,7.721,3.432,11.152C147.261,99.798,124.957,124.391,109.517,124.391z M169.564,118.386
		c-1.716,0-3.717,0-5.433-0.287c3.717-4.29,10.866-10.581,16.299-10.581c2.573,0,2.859,0.572,2.859,3.146
		C183.29,116.098,174.14,118.386,169.564,118.386z M325.117,128.108c-0.573,0-0.857-0.286-1.43-0.858l-0.572-0.287
		c-0.572-0.858-1.429-1.715-3.145-1.715c-1.717,0-3.146,0.286-4.575,1.144c8.864-7.149,17.443-14.87,22.59-19.445
		c0.284,1.144,0.284,2.001,0.284,3.145C338.27,116.383,331.978,128.108,325.117,128.108z M324.544,82.641
		c-2.285,0-5.431,1.716-5.431,4.576c0,2.288,1.142,4.861,4.002,4.861c2.289,0,5.434-2.001,5.434-4.861
		C328.549,84.929,327.405,82.641,324.544,82.641z M368.581,163.85c-7.435,0-16.014-3.145-19.732-9.721
		c7.15-1.432,14.869-3.432,22.305-3.432c4.574,0,11.438,1.144,11.438,6.291C382.592,162.422,372.583,163.85,368.581,163.85z"/>
</g>
</svg>
